<svg width="45" height="45" viewBox="0 0 45 45" fill="none" xmlns="http://www.w3.org/2000/svg">
<g id="snowflake-variant" clip-path="url(#clip0_8_87)">
<path id="Vector" d="M28.1023 22.0454L32.2341 20H46L43.9545 15.9091H35.8341L40.7227 9.425L38.6977 5.33409L30.3932 16.3182L26.2614 18.3841L27.0795 13.8636L35.425 2.85909L30.9455 2.04091L23.5 11.8182L16.1364 2L11.6364 2.81818L19.9409 13.8636L20.7591 18.3841L16.9955 16.5023L16.6682 16.3386L8.36364 5.27273L6.31818 9.36363L11.2273 15.9091H3.04545L1 20H14.8477L18.8977 22.0454L14.7659 24.0909H1L3.04545 28.1818H11.1659L6.27727 34.6659L8.30227 38.7568L16.6068 27.7727L20.7386 25.7068L19.9205 30.2273L11.575 41.2318L16.0545 42.0704L23.5 32.2727L30.8636 42.0909L35.3636 41.2727L27.0591 30.2273L26.2409 25.7068L30.3318 27.7523L38.6364 38.8182L40.6818 34.7273L35.7727 28.1818H43.9545L46 24.0909H32.1523" fill="#162542"/>
</g>
<defs>
<clipPath id="clip0_8_87">
<rect width="45" height="45" fill="white"/>
</clipPath>
</defs>
</svg>
